<svg width="24" height="24" viewBox="0 0 24 24" fill="none" xmlns="http://www.w3.org/2000/svg">
<path d="M5.407 15.8051C4.9624 15.4776 4.8674 14.8516 5.1949 14.4069C5.4493 14.0615 5.7037 13.7332 5.9269 13.4472C6.3724 12.8764 6.9857 12.1118 7.6521 11.3444C8.3141 10.5819 9.0482 9.7936 9.7334 9.1881C10.0749 8.8864 10.4279 8.6089 10.7721 8.4014C11.0888 8.2105 11.524 8 12.0001 8C12.4762 8 12.9115 8.2105 13.2282 8.4014C13.5724 8.6089 13.9253 8.8864 14.2668 9.1881C14.9521 9.7936 15.6861 10.5819 16.3482 11.3444C17.0145 12.1118 17.6278 12.8764 18.0734 13.4472C18.2965 13.7332 18.551 14.0615 18.8054 14.4069C19.1329 14.8516 19.0379 15.4776 18.5932 15.8051C18.4144 15.9368 18.2064 16.0002 18.0002 16H12.0001L6.0001 16C5.7939 16.0002 5.5858 15.9368 5.407 15.8051Z" fill="#8F8881"/>
</svg>
