<svg width="33" height="32" viewBox="0 0 33 32" fill="none" xmlns="http://www.w3.org/2000/svg">
<path d="M31.5 7.35898L27.9779 7.29676L26.192 4.40939L25.3083 7.76347L21.5 8.41685L24.9599 9.87921L25.271 10.0099L24.5367 13.1835L26.6898 11.2731L30.187 13.1835L28.7744 9.3316L31.5 7.35898Z" fill="#E43A12"/>
<path d="M4.69731 5.03806L7.10556 13.3426L1.5 19.6955L10.1783 19.3633L14.3306 28L15.7008 18.8651V18.0346L23.7977 17.4948L17.6939 13.7162L19.6869 4L11.3824 10.1453L4.69731 5.03806Z" fill="#E43A12"/>
<path d="M8.56548 29.625L7.29762 27.4881L8.38094 25.3452L6.02976 26.0536L4.24404 24L4.64284 26.625L4.67857 26.8571L2.5 27.5952L4.44046 28.1905L4.58927 31L6.37499 28.7321L8.56548 29.625Z" fill="#E43A12"/>
<path d="M22.2911 22.3185L22.887 24.3733L21.5 25.9452L23.6473 25.863L24.6747 28L24.9213 25.6884V25.4829L26.9247 25.339L25.4144 24.4144L25.9075 22L23.8528 23.5308L22.2911 22.3185Z" fill="#E43A12"/>
</svg>
